<svg xmlns="http://www.w3.org/2000/svg" width="46" height="34" viewBox="0 0 46 34">
    <g fill="#5444DA">
        <path d="M8.363 1.192L43.6 10.633c1.024.275 1.632 1.328 1.358 2.352l-4.97 18.546c-.274 1.024-1.327 1.632-2.351 1.357L2.4 23.447c-1.024-.275-1.632-1.328-1.358-2.352L6.012 2.55C6.286 1.525 7.339.917 8.363 1.192zm12.65 23.266c4.096 1.098 8.308-1.333 9.405-5.43 1.098-4.097-1.333-8.309-5.43-9.406-4.097-1.098-8.309 1.333-9.406 5.43-1.098 4.097 1.333 8.309 5.43 9.406z" opacity=".3"/>
        <path d="M4.76 5.52h36.48c1.06 0 1.92.86 1.92 1.92v19.2c0 1.06-.86 1.92-1.92 1.92H4.76c-1.06 0-1.92-.86-1.92-1.92V7.44c0-1.06.86-1.92 1.92-1.92zM23 24.72c4.242 0 7.68-3.438 7.68-7.68 0-4.242-3.438-7.68-7.68-7.68-4.242 0-7.68 3.438-7.68 7.68 0 4.242 3.438 7.68 7.68 7.68zm0-3.84c2.12 0 3.84-1.72 3.84-3.84S25.12 13.2 23 13.2s-3.84 1.72-3.84 3.84 1.72 3.84 3.84 3.84z"/>
    </g>
</svg>
