<svg xmlns="http://www.w3.org/2000/svg" width="25" height="21" viewBox="0 0 25 21">
    <path fill="#1DA1F2" d="M8.34 19.55c8.87 0 13.72-7.35 13.72-13.72 0-.21 0-.42-.01-.62.94-.68 1.76-1.53 2.41-2.5-.86.38-1.79.64-2.77.76 1-.6 1.76-1.54 2.12-2.67-.93.55-1.96.95-3.06 1.17-.88-.94-2.13-1.52-3.52-1.52-2.66 0-4.82 2.16-4.82 4.82 0 .38.04.75.13 1.1-4.01-.2-7.56-2.12-9.94-5.04-.41.71-.65 1.54-.65 2.42 0 1.67.85 3.15 2.15 4.01-.79-.02-1.53-.24-2.18-.6v.06c0 2.34 1.66 4.28 3.87 4.73-.4.11-.83.17-1.27.17-.31 0-.61-.03-.91-.09.61 1.92 2.39 3.31 4.5 3.35-1.65 1.29-3.73 2.06-5.99 2.06-.39 0-.77-.02-1.15-.07 2.11 1.38 4.65 2.18 7.37 2.18"/>
</svg>
